<svg width="388" height="78" viewBox="0 0 388 78" fill="none" xmlns="http://www.w3.org/2000/svg">
<path d="M32.6875 46.1172C32.6875 45.1016 32.5312 44.1901 32.2188 43.3828C31.9323 42.5495 31.3854 41.7943 30.5781 41.1172C29.7708 40.4141 28.638 39.724 27.1797 39.0469C25.7214 38.3698 23.8333 37.6667 21.5156 36.9375C18.9375 36.1042 16.4896 35.1667 14.1719 34.125C11.8802 33.0833 9.84896 31.8724 8.07812 30.4922C6.33333 29.0859 4.95312 27.4583 3.9375 25.6094C2.94792 23.7604 2.45312 21.612 2.45312 19.1641C2.45312 16.7943 2.97396 14.6458 4.01562 12.7188C5.05729 10.7656 6.51562 9.09896 8.39062 7.71875C10.2656 6.3125 12.4792 5.23177 15.0312 4.47656C17.6094 3.72135 20.4349 3.34375 23.5078 3.34375C27.7005 3.34375 31.3594 4.09896 34.4844 5.60938C37.6094 7.11979 40.0312 9.1901 41.75 11.8203C43.4948 14.4505 44.3672 17.4583 44.3672 20.8438H32.7266C32.7266 19.1771 32.375 17.7188 31.6719 16.4688C30.9948 15.1927 29.9531 14.1901 28.5469 13.4609C27.1667 12.7318 25.4219 12.3672 23.3125 12.3672C21.2812 12.3672 19.5885 12.6797 18.2344 13.3047C16.8802 13.9036 15.8646 14.724 15.1875 15.7656C14.5104 16.7812 14.1719 17.9271 14.1719 19.2031C14.1719 20.1667 14.4062 21.0391 14.875 21.8203C15.3698 22.6016 16.099 23.3307 17.0625 24.0078C18.026 24.6849 19.2109 25.3229 20.6172 25.9219C22.0234 26.5208 23.651 27.1068 25.5 27.6797C28.599 28.6172 31.3203 29.6719 33.6641 30.8438C36.0339 32.0156 38.013 33.3307 39.6016 34.7891C41.1901 36.2474 42.388 37.901 43.1953 39.75C44.0026 41.599 44.4062 43.6953 44.4062 46.0391C44.4062 48.513 43.9245 50.7266 42.9609 52.6797C41.9974 54.6328 40.6042 56.2865 38.7812 57.6406C36.9583 58.9948 34.7839 60.0234 32.2578 60.7266C29.7318 61.4297 26.9062 61.7812 23.7812 61.7812C20.9688 61.7812 18.1953 61.4167 15.4609 60.6875C12.7266 59.9323 10.2396 58.7995 8 57.2891C5.78646 55.7786 4.01562 53.8516 2.6875 51.5078C1.35938 49.1641 0.695312 46.3906 0.695312 43.1875H12.4531C12.4531 44.9583 12.7266 46.4557 13.2734 47.6797C13.8203 48.9036 14.5885 49.8932 15.5781 50.6484C16.5938 51.4036 17.7917 51.9505 19.1719 52.2891C20.5781 52.6276 22.1146 52.7969 23.7812 52.7969C25.8125 52.7969 27.4792 52.5104 28.7812 51.9375C30.1094 51.3646 31.0859 50.5703 31.7109 49.5547C32.362 48.5391 32.6875 47.3932 32.6875 46.1172Z" fill="#57A2FF"/>
<path d="M62.9219 0.960938V61H51.6719V0.960938H62.9219ZM89.5625 18.7344L71.2031 39.6719L61.3594 49.6328L57.2578 41.5078L65.0703 31.5859L76.0469 18.7344H89.5625ZM77.8828 61L65.3828 41.4688L73.1562 34.6719L90.8516 61H77.8828Z" fill="#57A2FF"/>
<path d="M106.281 18.7344V61H94.9922V18.7344H106.281ZM94.2891 7.71875C94.2891 6.07812 94.862 4.72396 96.0078 3.65625C97.1536 2.58854 98.6901 2.05469 100.617 2.05469C102.518 2.05469 104.042 2.58854 105.188 3.65625C106.359 4.72396 106.945 6.07812 106.945 7.71875C106.945 9.35938 106.359 10.7135 105.188 11.7812C104.042 12.849 102.518 13.3828 100.617 13.3828C98.6901 13.3828 97.1536 12.849 96.0078 11.7812C94.862 10.7135 94.2891 9.35938 94.2891 7.71875Z" fill="#57A2FF"/>
<path d="M127.453 1V61H116.164V1H127.453Z" fill="#57A2FF"/>
<path d="M148.625 1V61H137.336V1H148.625Z" fill="#57A2FF"/>
<path d="M180.891 36.0391H166.281L166.203 27.9922H178.469C180.63 27.9922 182.401 27.7188 183.781 27.1719C185.161 26.599 186.19 25.7786 186.867 24.7109C187.57 23.6172 187.922 22.2891 187.922 20.7266C187.922 18.9557 187.583 17.5234 186.906 16.4297C186.255 15.3359 185.227 14.5417 183.82 14.0469C182.44 13.5521 180.656 13.3047 178.469 13.3047H170.344V61H158.625V4.125H178.469C181.776 4.125 184.732 4.4375 187.336 5.0625C189.966 5.6875 192.193 6.63802 194.016 7.91406C195.839 9.1901 197.232 10.8047 198.195 12.7578C199.159 14.6849 199.641 16.9766 199.641 19.6328C199.641 21.9766 199.107 24.138 198.039 26.1172C196.997 28.0964 195.344 29.7109 193.078 30.9609C190.839 32.2109 187.909 32.901 184.289 33.0312L180.891 36.0391ZM180.383 61H163.078L167.648 51.8594H180.383C182.44 51.8594 184.12 51.5339 185.422 50.8828C186.724 50.2057 187.688 49.2943 188.312 48.1484C188.938 47.0026 189.25 45.6875 189.25 44.2031C189.25 42.5365 188.964 41.0911 188.391 39.8672C187.844 38.6432 186.958 37.7057 185.734 37.0547C184.51 36.3776 182.896 36.0391 180.891 36.0391H169.602L169.68 27.9922H183.742L186.438 31.1562C189.901 31.1042 192.688 31.7161 194.797 32.9922C196.932 34.2422 198.482 35.8698 199.445 37.875C200.435 39.8802 200.93 42.0286 200.93 44.3203C200.93 47.9661 200.135 51.0391 198.547 53.5391C196.958 56.013 194.628 57.875 191.555 59.125C188.508 60.375 184.784 61 180.383 61Z" fill="#57A2FF"/>
<path d="M220.266 27.9531V61H209.016V18.7344H219.602L220.266 27.9531ZM233 18.4609L232.805 28.8906C232.258 28.8125 231.594 28.7474 230.812 28.6953C230.057 28.6172 229.367 28.5781 228.742 28.5781C227.154 28.5781 225.773 28.7865 224.602 29.2031C223.456 29.5938 222.492 30.1797 221.711 30.9609C220.956 31.7422 220.383 32.6927 219.992 33.8125C219.628 34.9323 219.419 36.2083 219.367 37.6406L217.102 36.9375C217.102 34.2031 217.375 31.6901 217.922 29.3984C218.469 27.0807 219.263 25.0625 220.305 23.3438C221.372 21.625 222.674 20.2969 224.211 19.3594C225.747 18.4219 227.505 17.9531 229.484 17.9531C230.109 17.9531 230.747 18.0052 231.398 18.1094C232.049 18.1875 232.583 18.3047 233 18.4609Z" fill="#57A2FF"/>
<path d="M250.188 18.7344V61H238.898V18.7344H250.188ZM238.195 7.71875C238.195 6.07812 238.768 4.72396 239.914 3.65625C241.06 2.58854 242.596 2.05469 244.523 2.05469C246.424 2.05469 247.948 2.58854 249.094 3.65625C250.266 4.72396 250.852 6.07812 250.852 7.71875C250.852 9.35938 250.266 10.7135 249.094 11.7812C247.948 12.849 246.424 13.3828 244.523 13.3828C242.596 13.3828 241.06 12.849 239.914 11.7812C238.768 10.7135 238.195 9.35938 238.195 7.71875Z" fill="#57A2FF"/>
<path d="M284.445 51.7812V1H295.773V61H285.578L284.445 51.7812ZM257.727 40.375V39.5547C257.727 36.3255 258.091 33.3958 258.82 30.7656C259.549 28.1094 260.617 25.8307 262.023 23.9297C263.43 22.0286 265.161 20.5573 267.219 19.5156C269.276 18.474 271.62 17.9531 274.25 17.9531C276.724 17.9531 278.885 18.474 280.734 19.5156C282.609 20.5573 284.198 22.0417 285.5 23.9688C286.828 25.8698 287.896 28.1224 288.703 30.7266C289.51 33.3047 290.096 36.1302 290.461 39.2031V41C290.096 43.9427 289.51 46.6771 288.703 49.2031C287.896 51.7292 286.828 53.9427 285.5 55.8438C284.198 57.7188 282.609 59.1771 280.734 60.2188C278.859 61.2604 276.672 61.7812 274.172 61.7812C271.542 61.7812 269.198 61.2474 267.141 60.1797C265.109 59.112 263.391 57.6146 261.984 55.6875C260.604 53.7604 259.549 51.4948 258.82 48.8906C258.091 46.2865 257.727 43.4479 257.727 40.375ZM268.977 39.5547V40.375C268.977 42.1198 269.107 43.7474 269.367 45.2578C269.654 46.7682 270.109 48.1094 270.734 49.2812C271.385 50.4271 272.219 51.3255 273.234 51.9766C274.276 52.6016 275.539 52.9141 277.023 52.9141C278.951 52.9141 280.539 52.4844 281.789 51.625C283.039 50.7396 283.99 49.5286 284.641 47.9922C285.318 46.4557 285.708 44.6849 285.812 42.6797V37.5625C285.734 35.9219 285.5 34.4505 285.109 33.1484C284.745 31.8203 284.198 30.6875 283.469 29.75C282.766 28.8125 281.88 28.0833 280.812 27.5625C279.771 27.0417 278.534 26.7812 277.102 26.7812C275.643 26.7812 274.393 27.1198 273.352 27.7969C272.31 28.4479 271.464 29.3464 270.812 30.4922C270.188 31.638 269.719 32.9922 269.406 34.5547C269.12 36.0911 268.977 37.7578 268.977 39.5547Z" fill="#57A2FF"/>
<path d="M331.32 18.7344H341.516V59.5938C341.516 63.4479 340.656 66.7161 338.938 69.3984C337.245 72.1068 334.875 74.151 331.828 75.5312C328.781 76.9375 325.24 77.6406 321.203 77.6406C319.432 77.6406 317.557 77.4062 315.578 76.9375C313.625 76.4688 311.75 75.7396 309.953 74.75C308.182 73.7604 306.698 72.5104 305.5 71L310.461 64.3594C311.763 65.8698 313.273 67.0417 314.992 67.875C316.711 68.7344 318.612 69.1641 320.695 69.1641C322.727 69.1641 324.445 68.7865 325.852 68.0312C327.258 67.3021 328.339 66.2214 329.094 64.7891C329.849 63.3828 330.227 61.6771 330.227 59.6719V28.5L331.32 18.7344ZM302.883 40.375V39.5547C302.883 36.3255 303.273 33.3958 304.055 30.7656C304.862 28.1094 305.995 25.8307 307.453 23.9297C308.938 22.0286 310.734 20.5573 312.844 19.5156C314.953 18.474 317.336 17.9531 319.992 17.9531C322.805 17.9531 325.161 18.474 327.062 19.5156C328.964 20.5573 330.526 22.0417 331.75 23.9688C332.974 25.8698 333.924 28.1224 334.602 30.7266C335.305 33.3047 335.852 36.1302 336.242 39.2031V41C335.852 43.9427 335.266 46.6771 334.484 49.2031C333.703 51.7292 332.674 53.9427 331.398 55.8438C330.122 57.7188 328.534 59.1771 326.633 60.2188C324.758 61.2604 322.518 61.7812 319.914 61.7812C317.31 61.7812 314.953 61.2474 312.844 60.1797C310.76 59.112 308.977 57.6146 307.492 55.6875C306.008 53.7604 304.862 51.4948 304.055 48.8906C303.273 46.2865 302.883 43.4479 302.883 40.375ZM314.133 39.5547V40.375C314.133 42.1198 314.302 43.7474 314.641 45.2578C314.979 46.7682 315.5 48.1094 316.203 49.2812C316.932 50.4271 317.831 51.3255 318.898 51.9766C319.992 52.6016 321.281 52.9141 322.766 52.9141C324.823 52.9141 326.503 52.4844 327.805 51.625C329.107 50.7396 330.083 49.5286 330.734 47.9922C331.385 46.4557 331.763 44.6849 331.867 42.6797V37.5625C331.815 35.9219 331.594 34.4505 331.203 33.1484C330.812 31.8203 330.266 30.6875 329.562 29.75C328.859 28.8125 327.948 28.0833 326.828 27.5625C325.708 27.0417 324.38 26.7812 322.844 26.7812C321.359 26.7812 320.07 27.1198 318.977 27.7969C317.909 28.4479 317.01 29.3464 316.281 30.4922C315.578 31.638 315.044 32.9922 314.68 34.5547C314.315 36.0911 314.133 37.7578 314.133 39.5547Z" fill="#57A2FF"/>
<path d="M369.719 61.7812C366.438 61.7812 363.495 61.2604 360.891 60.2188C358.286 59.151 356.073 57.6797 354.25 55.8047C352.453 53.9297 351.073 51.7552 350.109 49.2812C349.146 46.7812 348.664 44.125 348.664 41.3125V39.75C348.664 36.5469 349.12 33.6172 350.031 30.9609C350.943 28.3047 352.245 26 353.938 24.0469C355.656 22.0938 357.74 20.5964 360.188 19.5547C362.635 18.487 365.396 17.9531 368.469 17.9531C371.464 17.9531 374.12 18.4479 376.438 19.4375C378.755 20.4271 380.695 21.8333 382.258 23.6562C383.846 25.4792 385.044 27.6667 385.852 30.2188C386.659 32.7448 387.062 35.5573 387.062 38.6562V43.3438H353.469V35.8438H376.008V34.9844C376.008 33.4219 375.721 32.0286 375.148 30.8047C374.602 29.5547 373.768 28.5651 372.648 27.8359C371.529 27.1068 370.096 26.7422 368.352 26.7422C366.867 26.7422 365.591 27.0677 364.523 27.7188C363.456 28.3698 362.583 29.2812 361.906 30.4531C361.255 31.625 360.76 33.0052 360.422 34.5938C360.109 36.1562 359.953 37.875 359.953 39.75V41.3125C359.953 43.0052 360.188 44.5677 360.656 46C361.151 47.4323 361.841 48.6693 362.727 49.7109C363.638 50.7526 364.732 51.5599 366.008 52.1328C367.31 52.7057 368.781 52.9922 370.422 52.9922C372.453 52.9922 374.341 52.6016 376.086 51.8203C377.857 51.013 379.38 49.8021 380.656 48.1875L386.125 54.125C385.24 55.401 384.029 56.625 382.492 57.7969C380.982 58.9688 379.159 59.9323 377.023 60.6875C374.888 61.4167 372.453 61.7812 369.719 61.7812Z" fill="#57A2FF"/>
</svg>
